PathFileType	4	(X/Y/Z)	D:\Share\Shared_Data\Ergonomics\Sit To Stand Pertubation\S1\Perturbed_NoHarness.trc
DataRate	CameraRate	NumFrames	NumMarkers	Units	OrigDataRate	OrigDataStartFrame	OrigNumFrames	
100	100	12	18	m	100	9451	191
Frame#	Time	L_ASIS			R_ASIS			R_Pelvis			V_Sacral			L_Pelvis			Clavical			R_Acromium			L_Acromium			Sternum			Torso			R_Thigh_Med			R_Thigh_Lat			R_Thigh			R_Shank_Med			R_Shank_Lat			R_Shank			R_Heel			R_Toe			
		X1	Y1	Z1	X2	Y2	Z2	X3	Y3	Z3	X4	Y4	Z4	X5	Y5	Z5	X6	Y6	Z6	X7	Y7	Z7	X8	Y8	Z8	X9	Y9	Z9	X10	Y10	Z10	X11	Y11	Z11	X12	Y12	Z12	X13	Y13	Z13	X14	Y14	Z14	X15	Y15	Z15	X16	Y16	Z16	X17	Y17	Z17	X18	Y18	Z18	

9451	94.5	0.028976959	0.64727399	-0.104375	0.018370876	0.63183368	0.095852234	-0.065239685	0.62877502	0.12717957	-0.16631792	0.56185522	-0.0037076254	-0.066680969	0.63006671	-0.15057126	0.024990664	0.96649744	-0.009631587	-0.033659409	1.0407582	0.13755128	-0.079143219	0.99491583	-0.2068718	0.012604677	0.98256696	0.091832207	0.021094324	0.96963745	-0.069179207	0.37789645	0.4782735	0.01549388	0.30809106	0.43632022	0.15582063	0.17913116	0.55179724	0.10345552	0.35734009	0.067377167	0.1130237	0.32467587	0.097710396	0.17823222	0.311272	0.31018692	0.18097572	0.28246124	0.043061172	0.13368938	0.48767889	0.053475723	0.1351523
9452	94.51	0.028985035	0.64727563	-0.10465334	0.018385757	0.63181744	0.095875633	-0.065229019	0.62877228	0.12718401	-0.16630644	0.56185815	-0.0037054431	-0.066647652	0.6300752	-0.15056265	0.025009754	0.96648883	-0.0096078167	-0.033674526	1.0407479	0.13756108	-0.079068367	0.99489789	-0.20687077	0.012607118	0.98256268	0.091853409	0.021127632	0.96961945	-0.069157005	0.37796225	0.4783454	0.015478539	0.3080863	0.43631699	0.15583607	0.17913029	0.55179883	0.10346915	0.35738779	0.067206955	0.1130881	0.32467627	0.097706276	0.17823135	0.31126575	0.31018494	0.18098193	0.28246243	0.043064053	0.13368861	0.48767923	0.053473782	0.1351541
9453	94.52	0.028985077	0.64728204	-0.1050448	0.018400467	0.63180048	0.095897652	-0.065218582	0.62876941	0.12718862	-0.1662946	0.56186212	-0.0037030759	-0.066612778	0.63008398	-0.15055409	0.025030102	0.96648163	-0.0095862913	-0.033691555	1.040738	0.13756741	-0.078986565	0.99488007	-0.20687665	0.012607713	0.98255933	0.09187178	0.021162668	0.96960193	-0.069137169	0.37801743	0.47840704	0.015468196	0.30808139	0.43631363	0.15585175	0.17912923	0.55180096	0.10348256	0.35744287	0.067076195	0.11312146	0.32467722	0.097701813	0.1782307	0.31125922	0.31018283	0.18098816	0.28246371	0.043066746	0.13368802	0.48767957	0.053471966	0.13515587
9454	94.53	0.028975836	0.64729395	-0.10556389	0.018415447	0.63178308	0.095917946	-0.065208214	0.6287666	0.12719344	-0.16628247	0.5618678	-0.0036998577	-0.066576477	0.63009277	-0.15054564	0.025051748	0.96647559	-0.0095674696	-0.033709705	1.0407286	0.13756999	-0.078898697	0.99486194	-0.20688893	0.012607004	0.9825564	0.091886932	0.021199232	0.96958502	-0.069120071	0.3780517	0.47844797	0.015465977	0.30807642	0.43631015	0.1558674	0.17912814	0.55180365	0.10349538	0.35750305	0.066993065	0.1131194	0.32467868	0.097697174	0.17823013	0.31125256	0.31018073	0.18099431	0.28246512	0.043069202	0.13368759	0.48767978	0.053470291	0.13515759
9455	94.54	0.028956491	0.64731165	-0.10621931	0.018431131	0.6317655	0.095936295	-0.065197739	0.62876379	0.12719847	-0.1662701	0.56187616	-0.0036950254	-0.066538872	0.63010175	-0.15053745	0.02507468	0.96647076	-0.0095517969	-0.033728203	1.0407201	0.13756851	-0.078805962	0.99484332	-0.20690697	0.012605527	0.98255347	0.091898506	0.021237062	0.96956866	-0.069106117	0.37805267	0.47845529	0.015475643	0.30807156	0.43630664	0.15588272	0.17912714	0.5518067	0.10350735	0.35756329	0.066965355	0.11307921	0.32468063	0.097692574	0.17822964	0.31124594	0.31017853	0.18100017	0.28246674	0.043071373	0.13368723	0.48767996	0.053468742	0.13515929
9456	94.55	0.028926809	0.64733521	-0.10701231	0.018447905	0.63174805	0.095952438	-0.065187004	0.62876105	0.12720375	-0.16625751	0.56188837	-0.0036877694	-0.066500191	0.63011053	-0.15052965	0.025098845	0.96646661	-0.0095396929	-0.033746346	1.0407125	0.1375627	-0.078709663	0.99482349	-0.20693019	0.01260378	0.98255023	0.091906219	0.021275843	0.96955286	-0.069095772	0.37800653	0.47841473	0.015501428	0.30806693	0.43630325	0.15589746	0.1791264	0.55180969	0.10351823	0.35761551	0.06700029	0.11300008	0.32468289	0.097688164	0.17822914	0.31123944	0.31017636	0.18100568	0.28246854	0.04307325	0.13368692	0.48768008	0.053467323	0.1351609
9457	94.56	0.028887218	0.64736438	-0.10793554	0.018466097	0.63173077	0.095966225	-0.065175903	0.62875842	0.1272093	-0.16624483	0.56190515	-0.0036773016	-0.066460732	0.6301192	-0.1505224	0.025124159	0.96646295	-0.0095315228	-0.0337635	1.0407059	0.1375522	-0.078611275	0.99480219	-0.20695796	0.012602211	0.98254639	0.091909828	0.021315231	0.96953784	-0.06908947	0.37789865	0.47831149	0.015547711	0.30806277	0.43629999	0.15591141	0.17912599	0.5518125	0.10352786	0.35764957	0.067103912	0.11288329	0.32468542	0.097684097	0.17822856	0.31123328	0.31017426	0.18101064	0.28247046	0.04307481	0.13368657	0.48768015	0.05346603	0.13516251
9458	94.57	0.02883885	0.64739813	-0.10897221	0.018485973	0.63171393	0.095977524	-0.065164291	0.62875586	0.12721516	-0.1662321	0.56192712	-0.003662936	-0.066420807	0.63012762	-0.15051582	0.025150494	0.96645953	-0.0095275917	-0.033779121	1.0407007	0.13753682	-0.078512321	0.99477881	-0.20698975	0.012601198	0.98254187	0.091909142	0.021354874	0.96952338	-0.069087692	0.37771542	0.47813147	0.015618601	0.30805905	0.436297	0.15592422	0.17912601	0.55181506	0.10353609	0.35765439	0.067279976	0.11273249	0.32468811	0.097680534	0.17822787	0.31122757	0.31017227	0.18101492	0.2824726	0.043076073	0.1336862	0.48768018	0.053464848	0.13516405
9459	94.58	0.028783585	0.64743524	-0.11009625	0.018507711	0.63169739	0.095986237	-0.065152054	0.62875342	0.1272213	-0.16621938	0.5619549	-0.0036441743	-0.066380806	0.6301355	-0.15051015	0.025177702	0.96645605	-0.00952812	-0.033792789	1.0406974	0.13751634	-0.078414299	0.99475299	-0.20702504	0.012601038	0.98253662	0.091904045	0.021394411	0.96950946	-0.069090813	0.3774458	0.47786346	0.015717372	0.30805603	0.43629425	0.15593571	0.17912646	0.55181714	0.10354281	0.35761957	0.06752861	0.11255381	0.32469086	0.097677528	0.17822702	0.31122235	0.31017038	0.18101846	0.28247479	0.043077076	0.13368571	0.48768021	0.05346376	0.13516554
9460	94.59	0.028723965	0.64747418	-0.11127303	0.018531408	0.6316814	0.095992317	-0.065139107	0.6287511	0.12722772	-0.16620667	0.56198865	-0.0036207848	-0.066341125	0.63014294	-0.15050549	0.02520561	0.96645233	-0.0095332413	-0.033804226	1.040696	0.13749068	-0.078318665	0.99472449	-0.20706337	0.012601924	0.98253082	0.091894493	0.021433472	0.9694964	-0.069099159	0.37708325	0.47750085	0.015845858	0.30805368	0.43629196	0.15594563	0.1791274	0.5518186	0.10354799	0.35753687	0.067845261	0.11235571	0.32469354	0.097675156	0.17822603	0.3112178	0.31016864	0.1810211	0.28247699	0.043077888	0.13368507	0.48768018	0.053462734	0.13516704
9461	94.6	0.028663126	0.64751294	-0.1124608	0.018557066	0.63166553	0.095995758	-0.065125351	0.62874896	0.12723435	-0.16619394	0.5620282	-0.0035928581	-0.066302124	0.63014972	-0.15050201	0.025234013	0.96644849	-0.0095429993	-0.033813297	1.0406969	0.13745976	-0.078226799	0.99469318	-0.20710443	0.012603951	0.98252472	0.091880516	0.021471693	0.96948389	-0.069112885	0.37662796	0.47704379	0.016003834	0.30805206	0.43629004	0.15595378	0.17912877	0.5518197	0.10355161	0.3574017	0.068219978	0.11214867	0.32469614	0.097673424	0.17822485	0.31121405	0.31016714	0.18102284	0.28247916	0.04307859	0.13368428	0.48768015	0.053461723	0.13516847
9462	94.61	0.028604656	0.64754926	-0.11361292	0.018584627	0.63165002	0.095996574	-0.065110695	0.62874689	0.12724107	-0.16618111	0.562073	-0.0035608363	-0.06626416	0.63015601	-0.15049976	0.025262676	0.96644427	-0.0095573454	-0.033820065	1.0407002	0.13742374	-0.078139977	0.99465894	-0.20714781	0.012607109	0.98251868	0.091862206	0.021508692	0.96947241	-0.069132042	0.37608829	0.47650089	0.016188484	0.3080513	0.43628848	0.15596001	0.17913054	0.55182013	0.10355367	0.35721399	0.068637695	0.11194431	0.32469858	0.097672302	0.1782235	0.31121115	0.31016577	0.18102359	0.28248126	0.043079258	0.1336833	0.48768011	0.053460678	0.13516989
